<?xml version="1.0" encoding="UTF-8" standalone="no"?>
<!-- Created with Inkscape (http://www.inkscape.org/) -->

<svg
   xmlns:dc="http://purl.org/dc/elements/1.1/"
   xmlns:cc="http://creativecommons.org/ns#"
   xmlns:rdf="http://www.w3.org/1999/02/22-rdf-syntax-ns#"
   xmlns:svg="http://www.w3.org/2000/svg"
   xmlns="http://www.w3.org/2000/svg"
   xmlns:sodipodi="http://sodipodi.sourceforge.net/DTD/sodipodi-0.dtd"
   xmlns:inkscape="http://www.inkscape.org/namespaces/inkscape"
   width="200mm"
   height="44.450001mm"
   viewBox="0 0 708.66141 157.5"
   id="svg4209"
   version="1.1"
   inkscape:version="0.92.1 r"
   sodipodi:docname="banner.svg">
  <defs
     id="defs4211" />
  <sodipodi:namedview
     id="base"
     pagecolor="#ffffff"
     bordercolor="#666666"
     borderopacity="1.0"
     inkscape:pageopacity="0.0"
     inkscape:pageshadow="2"
     inkscape:zoom="1.2250208"
     inkscape:cx="377.95276"
     inkscape:cy="84.000001"
     inkscape:document-units="px"
     inkscape:current-layer="layer1"
     showgrid="false"
     fit-margin-top="0"
     fit-margin-left="0"
     fit-margin-right="0"
     fit-margin-bottom="0"
     inkscape:window-width="1366"
     inkscape:window-height="740"
     inkscape:window-x="0"
     inkscape:window-y="0"
     inkscape:window-maximized="1" />
  <metadata
     id="metadata4214">
    <rdf:RDF>
      <cc:Work
         rdf:about="">
        <dc:format>image/svg+xml</dc:format>
        <dc:type
           rdf:resource="http://purl.org/dc/dcmitype/StillImage" />
        <dc:title></dc:title>
      </cc:Work>
    </rdf:RDF>
  </metadata>
  <g
     inkscape:label="Layer 1"
     inkscape:groupmode="layer"
     id="layer1"
     transform="translate(-68.928574,-93.612206)">
    <g
       id="g4806"
       transform="translate(154.54313,5.5558388)">
      <path
         style="fill:#fd792f"
         d="M 459.55357,238.10952 C 440.92496,232.20261 430.369,218.64154 426.32549,195.422 c -2.93924,-16.87837 2.01922,-30.7858 14.94486,-41.91718 3.52385,-3.03469 6.40212,-6.36136 6.39619,-7.39261 -0.006,-1.03125 -1.39434,-4.6875 -3.0853,-8.125 -5.30009,-10.77435 -3.81432,-18.99254 4.80127,-26.55713 5.63136,-4.9444 12.11929,-7.0282 18.77488,-6.03013 6.18922,0.92813 19.55251,9.2245 21.88831,13.58898 2.26784,4.23748 1.36731,8.99828 -1.70204,8.99828 -1.7935,0 -2.98774,-1.52389 -4.40817,-5.625 -1.84827,-5.33628 -2.21498,-5.64453 -7.14447,-6.00532 -9.73205,-0.71229 -20.36245,7.25995 -20.36245,15.27076 0,6.50118 2.71633,9.02811 10.57682,9.83939 8.24188,0.85064 16.70917,5.19243 19.3678,9.93127 1.78903,3.18885 1.73513,3.58971 -0.82733,6.15216 -3.78757,3.78758 -12.66584,3.47492 -22.29894,-0.78529 -7.24687,-3.20491 -7.38691,-3.21704 -10.519,-0.91088 -6.92165,5.09641 -9.13616,14.36505 -11.71147,21.86505 l -0.78546,7.81434 c 0.25957,3.31173 -0.75493,9.13318 4.45916,20.14008 3.47072,7.32667 14.3018,17.36012 21.52512,19.93997 11.62505,4.15194 32.97953,0.92702 44.28125,-6.68731 8.34065,-5.61935 11.7609,-14.75685 10.69939,-26.93001 -1.4308,-16.40813 -4.0183,-23.39723 -13.39857,-23.36365 -7.07374,0.0253 -14.58093,4.02667 -18.5193,9.87082 -3.5707,5.29857 -3.561,6.642 0.0786,10.87323 3.55588,4.13395 6.42341,3.41572 7.48133,-1.87385 1.38906,-6.94533 12.36947,-6.32047 14.15802,0.80569 1.7519,6.98014 -6.04949,14.04057 -15.52324,14.04887 -10.05607,0.009 -17.93741,-11.24626 -15.1565,-21.64448 2.75563,-10.30368 13.85668,-17.49228 30.21553,-19.56638 22.13935,-2.80699 38.36514,-13.23646 38.3886,-24.67507 0.0135,-6.56567 -4.70961,-17.35268 -9.40164,-21.47233 -11.11205,-9.75646 -26.03136,-3.25743 -19.77212,8.61294 2.54075,4.81842 6.6011,6.23472 9.13187,3.18532 0.8834,-1.06443 3.21409,-1.93532 5.1793,-1.93532 2.82964,0 3.74745,0.69455 4.4109,3.33792 0.68963,2.74768 0.11088,3.98739 -3.27279,7.01071 -3.39728,3.03548 -4.86008,3.55114 -8.43015,2.9718 -5.37258,-0.87185 -12.57312,-6.23359 -14.27656,-10.63077 -0.70625,-1.82306 -1.34779,-5.23075 -1.42564,-7.57263 -0.11737,-3.52972 0.77794,-5.07393 5.23464,-9.02892 6.0966,-5.41025 11.78238,-6.97439 17.9515,-4.9384 9.55459,3.1533 18.39525,17.77826 18.41665,30.46634 0.0112,6.88485 -0.26984,7.54258 -5.72147,13.37083 -3.45463,3.69327 -19.05766,13.28735 -24.6375,16.1518 3.75519,2.97949 14.56105,27.94977 5.08187,45.40352 -3.84914,6.3347 -17.71617,17.91227 -25.33569,21.60372 -13.37416,6.47941 -31.34961,8.63705 -42.5,5.10139 z m 22.4146,-87.62231 c -0.047,-0.6875 -1.57395,-2.08551 -3.39331,-3.10669 -2.52269,-1.41595 -14.93597,-1.38191 -13.87521,-0.21795 3.06515,3.3634 8.832,5.39591 13.28282,4.96697 2.23912,-0.21578 4.03268,-0.95483 3.9857,-1.64233 z"
         id="path4814"
         inkscape:connector-curvature="0"
         sodipodi:nodetypes="csscsssssssssssssccssssssssscsssssssssssssscsccscccsssc" />
      <path
         style="fill:#3d3334;fill-opacity:1"
         d="m 91.049767,196.10967 c -0.131063,-13.07793 1.263017,-11.99238 -5.117386,-12.05552 -1.581172,-0.0156 -3.23253,0.50942 -3.253807,-1.69194 -0.03584,-3.70846 0.650211,-2.14411 10.246193,-2.00761 10.921493,0.15535 11.291773,-0.98901 11.319473,2.07074 0.0181,2.00233 -0.72554,1.69195 -5.589782,1.56568 -4.800418,-0.12461 -3.765089,-0.25682 -3.475884,12.37119 0.228557,9.97981 1.398967,9.71203 -1.875,9.75 -3.779526,0.0438 -2.153192,0.0372 -2.253807,-10.00254 z m 22.080193,10.00254 c -3.72838,0.0152 -1.50016,1.40374 -1.70139,-13.125 -0.1783,-12.87294 -2.018,-13.0889 1.71244,-13.125 3.65042,-0.0353 2.9036,-0.18965 2.83097,9.57096 2.03156,-0.85266 4.95626,-3.01425 9.04291,-2.08365 4.6145,1.0508 5.16368,3.57425 5.16368,11.51269 0,5.61111 1.40485,7.39303 -1.875,7.25 -3.43696,-0.14988 -2.97922,1.06347 -2.82202,-4.55981 0.26047,-9.3171 -0.13529,-10.52175 -3.68272,-11.27539 -2.92135,-0.62063 -4.50812,0.55081 -5.85842,1.08176 -0.0952,15.96806 2.00616,14.73378 -2.81045,14.75344 z m 25.89454,-1.09581 c -3.63065,-2.281 -4.48375,-6.19273 -3.38641,-10.5649 0.79065,-3.15017 3.52417,-5.90148 10.05573,-5.83929 7.08698,0.0675 9.92669,4.60534 9.92669,7.65385 0,2.08383 0.0276,2.50026 -7.24316,2.34615 -8.16283,-0.17302 -7.86436,-1.11997 -6.91863,2.29063 0.51281,1.84936 3.60648,3.3468 7.67842,2.78868 3.43443,-0.47074 5.47365,-3.25864 5.67235,-0.26633 0.19845,2.98862 -11.49708,4.28515 -15.78499,1.59121 z m 6.73067,-8.47182 c 5.19818,-0.0174 4.34729,0.0149 4.11174,-1.94728 -0.3746,-3.12045 -6.86867,-4.08716 -8.23239,-0.74294 -1.03955,2.54927 -0.57255,2.7059 4.12065,2.69022 z m 29.48653,-11.83434 c -1.29258,-0.69682 -0.91026,-0.61883 -0.3788,-4.03997 l 8.13452,-0.29657 c 11.38794,-0.41518 12.44912,7.45298 8.98982,10.89837 -1.39283,1.38723 -1.49026,1.07543 -0.16776,1.43154 1.71959,0.46302 4.31174,3.84965 3.23357,8.67542 -0.9689,4.33664 -5.23351,5.11919 -11.77563,5.04882 -3.91305,-0.0421 -5.40253,-0.0842 -7.97258,-0.12627 0,0 0.11942,-2.00757 0.18941,-2.96668 0.45509,-6.2366 -0.25255,-18.62466 -0.25255,-18.62466 z m 10.05545,18.71144 c 7.02192,-0.0596 5.5759,-7.46052 0.0201,-7.70366 -4.89539,-0.21424 -4.88312,-1.12462 -4.47974,3.89825 0.34215,4.26026 -0.69068,3.84915 4.45968,3.80541 z m -0.29274,-12.1499 c 5.69145,-0.11166 6.23043,-7.23693 -0.23886,-6.86928 -5.19798,0.29541 -4.83347,-0.56315 -4.77896,4.25 0.0398,3.51217 -0.0593,2.71888 5.01782,2.61928 z m 24.05005,15.02983 c -1.69688,0.21843 -4.03824,0.39829 -5.55772,-0.86865 -2.4943,-2.07975 -1.75679,-6.75853 0.16022,-9.1505 1.58233,-1.97438 5.05611,-1.92533 7.12323,-1.92533 2.06713,0 4.32292,0.49212 4.31716,-0.22448 -0.0328,-4.07352 -0.96956,-7.51795 -5.69463,-5.38637 -5.76284,2.59973 -6.04017,2.81055 -6.228,0.90751 -0.57984,-5.87462 15.29822,-6.09372 15.73401,0.79643 0.95266,15.06238 2.16889,16.16706 -1.23908,16.10393 -2.83851,-0.0526 -3.98204,0.59694 -3.41348,-1.4884 -1.7339,0.37423 -3.46781,1.01267 -5.20171,1.23586 z m 0.65319,-9.71478 c -4.46553,-0.22015 -4.91056,6.76212 -0.55119,6.51135 2.64984,-0.15242 3.58921,-0.58232 5.69949,-1.09445 0.21964,-5.84147 0.93766,-5.11686 -5.1483,-5.4169 z m 21.09588,9.52538 c -2.31054,-0.14828 -1.97702,-1.81648 -1.875,-8.84166 0.12627,-8.6948 -1.05444,-9.25418 2.3769,-9.3674 2.37647,-0.0784 2.3424,0.17599 2.38369,1.99442 2.43612,-0.93459 5.0253,-2.80759 8.13125,-2.73745 4.73142,0.10684 5.98443,0.9226 5.85816,11.70209 -0.0849,7.25211 1.27903,7.14257 -1.875,7.25 -2.931,0.0998 -1.81735,-0.0138 -2.12754,-6.07504 -0.27957,-5.46315 -0.6386,-7.58144 -3.17764,-8.9394 -2.24828,-1.20246 -4.05677,0.68881 -6.43043,1.00951 -0.63631,13.29927 1.00015,14.27861 -3.26439,14.00493 z m 24.375,-13.125 c 0,-10.83334 -1.12441,-13.0312 1.875,-13.125 3.18507,-0.0996 1.95699,1.40808 1.81187,6.16296 -0.31568,10.34287 -0.6294,10.86462 6.51726,4.7401 2.27063,-1.94587 1.28895,-2.06017 4.83253,-2.13663 3.12113,-0.0673 0.28546,1.44027 -1.67779,3.48946 -1.84738,1.92825 -4.43216,4.18606 -4.43216,4.18606 -0.40537,0.46534 2.87114,3.41893 5.06851,5.68604 3.36162,3.46832 4.44046,4.29518 1.6309,4.12201 -3.73233,-0.23004 -2.67378,0.78148 -5.76864,-3.26155 -4.1496,-5.42091 -6.41835,-7.35672 -6.10748,0.83532 0.0506,1.33345 0.66951,2.26506 -1.875,2.42623 -3.43767,0.21774 -1.875,0.54938 -1.875,-13.125 z m 38.97363,11.93332 c -5.52172,-2.22185 -5.18093,-14.07606 0.45453,-16.21866 8.2806,-3.14827 15.7831,0.30782 15.57184,7.98617 -0.23594,8.57542 -7.79024,11.54656 -16.02637,8.23249 z m 11.45562,-7.91682 c -0.044,-7.27876 -3.25898,-7.81567 -5.42925,-7.81567 -2.17026,0 -5.31409,1.61019 -5.23985,7.6894 0.0811,6.64365 3.06959,7.3106 5.23985,7.3106 3.02112,-0.77081 5.46298,-1.59949 5.42925,-7.18433 z m 13.32075,2.84153 c 0,-1.87448 0.13891,-4.96553 -0.14951,-7.74282 -0.17107,-1.64723 -2.51093,0.16875 -2.56835,-2.24944 -0.0659,-2.7733 2.52717,-0.50382 2.76852,-2.5271 0.36857,-3.08988 -1.3647,-5.75798 2.098,-9.2249 4.35965,-4.36495 9.00382,1.064 7.98786,2.61379 -1.98616,3.02979 -3.42255,-1.32483 -5.30739,0.43663 -1.98734,1.85725 -1.20429,3.79296 -0.9028,6.35877 0.20342,1.73123 3.20594,-0.81118 3.05445,2.47885 -0.0827,1.79546 -2.76277,1.11095 -3.10995,1.90058 -0.74049,1.68415 -0.12083,3.00112 -0.12083,7.50066 0,5.14173 0.18423,6.72195 -1.875,6.72195 -2.39947,0 -1.875,-1.52967 -1.875,-6.26697 z m 110,-7.39739 V 178.7835 l 7.45536,0.12319 c 0.70501,0.0116 0.95335,4.15629 0.95335,4.15629 3.12505,-6.34456 11.23409,-4.04789 13.17853,-2.90259 2.9818,1.75633 3.10675,2.19177 5.76919,0.32692 3.93443,-2.75578 9.60816,-2.41047 12.64357,0.62494 2.10784,2.10784 2.5,4.16666 2.5,13.125 0,10.5 1.48067,12.08791 -2.94643,12.14286 -5.01757,0.0623 -3.5734,-1.73616 -3.30357,-10.80358 0.19673,-6.61095 0.17077,-8.54538 -1.16071,-10.53571 -1.45064,-2.16846 -3.96606,-3.1505 -7.00737,-0.92665 -1.90769,1.39494 -2.93154,3.67793 -2.87554,11.25 0.0788,10.65554 1.43324,11.04906 -3.02157,11.01594 -4.2912,-0.0319 -3.61338,-0.54082 -3.43481,-10.16563 0.1895,-10.21381 -1.70424,-12.51294 -4.79499,-12.51294 -4.04148,0 -5.20501,4.77557 -5.20501,13.93884 v 8.47187 h -4.375 -4.375 v -13.66436 z m 91.23624,0.38837 c -0.007,-7.47946 -0.36225,-15.70742 -0.7882,-18.28437 l -0.77445,-4.68535 9.85071,0.78835 c 5.41789,0.4336 11.66652,1.52378 13.88583,2.42264 8.33469,3.37565 11.6806,15.64508 6.55784,24.04744 -3.14378,5.15639 -8.10517,7.27917 -19.67837,8.41956 l -9.0396,0.89074 -0.0138,-13.59901 z m 17.33248,6.49473 c 6.01952,-3.11281 8.13147,-11.30509 4.65003,-18.03746 -2.06088,-3.9853 -7.45048,-6.84359 -10.86238,-5.7607 -2.07552,0.65875 -2.35637,2.07132 -2.35637,11.85154 0,9.2562 0.36397,11.31564 2.1875,12.37775 2.78217,1.62046 2.35853,1.64908 6.38122,-0.43113 z M 346.42853,187.91533 v -16.94687 l 5.14839,0.38437 c 6.11339,0.45642 4.76475,-0.17653 8.36434,8.24244 4.52986,10.59476 5.75381,10.15674 11.55939,-2.54556 2.8693,-6.27787 1.79962,-5.9375 7.48637,-5.9375 h 4.94151 v 16.875 18.20083 h -4.32633 c -3.00654,0 -1.97268,0.81077 -2.1875,-12.26333 -0.23567,-14.34347 -1.12486,-14.02723 -6.61117,-4.0625 -2.79367,5.07412 -3.51516,6.875 -5.625,6.875 -2.10983,0 -2.94843,-1.73814 -5.625,-6.875 -5.84346,-11.21473 -6.46645,-10.80008 -6.61116,4.0625 -0.12435,12.77197 1.08633,12.41104 -1.91964,12.35262 l -4.5942,-0.0893 z m 50.35714,13.73259 c -1.19131,-1.70927 -1.57231,-3.45245 -1.60714,-11.78571 -0.0446,-10.68155 -0.83897,-9.93977 3.125,-10 3.92367,-0.0596 3.125,-0.94245 3.125,8.55626 0,6.86278 0.47708,9.79159 2.41043,11.54124 5.36401,4.85437 9.46457,-1.97185 9.46457,-13.45989 0,-6.43726 -0.94182,-6.78886 3.75,-6.63761 4.15051,0.1338 3.16964,-0.26786 3.125,13.30357 -0.0402,12.21007 0.078,13.04193 -2.85922,13.05243 -5.08715,0.0182 -4.43102,-0.92741 -4.42198,-2.08363 0.0158,-2.02325 -0.0579,-1.3149 -2.19731,2e-5 -1.56464,0.96166 -2.58053,1.9537 -6.59292,1.88833 -3.60669,-0.0588 -5.95238,-2.41072 -7.32143,-4.37501 z m 164.64286,0.71429 c -1.375,-1.375 -2.5,-3.79874 -2.5,-5.38609 0,-5.07164 2.8246,-7.39198 9.81623,-8.06378 7.31462,-0.70285 9.18827,-2.33777 5.68725,-4.96261 -1.60938,-1.20659 -4.09631,-1.5572 -7.69098,-1.08428 -2.99763,0.39438 -5.3125,0.18384 -5.3125,-0.48318 0,-2.10126 4.69189,-3.77006 10.59964,-3.77006 4.45314,0 6.46178,0.69777 8.83218,3.06818 2.74911,2.7491 3.06818,4.11405 3.06818,13.125 0,9.66074 -0.11322,10.05682 -2.875,10.05682 -1.58125,0 -3.56403,-0.68904 -4.4062,-1.5312 -1.20826,-1.20827 -2.0483,-1.20827 -3.98303,0 -3.63629,2.27089 -8.40747,1.8595 -11.23577,-0.9688 z m 11.80749,-2.02207 c 1.10658,-0.42463 2.59788,-1.86684 3.31398,-3.2049 2.71768,-5.07804 -4.41402,-8.18197 -9.08554,-3.9543 -2.79393,2.52847 -2.84335,3.44527 -0.32164,5.96698 2.15973,2.15973 3.09503,2.34273 6.0932,1.19222 z m 24.33419,2.91981 c -3.1108,-2.3884 -4.89168,-6.58339 -4.89168,-11.52274 0,-7.68522 4.09538,-13.01083 10.0625,-13.08525 1.75313,-0.0219 3.82469,0.59744 4.60348,1.37622 2.71134,2.71133 5.33402,0.19056 5.33402,-5.12674 0,-4.54185 0.30845,-5.03923 3.125,-5.03923 h 3.125 v 17.5 c 0,17.42753 -0.0125,17.5 -2.875,17.5 -1.58125,0 -3.56403,-0.68904 -4.4062,-1.5312 -1.20826,-1.20827 -2.0483,-1.20827 -3.98303,0 -3.09585,1.93339 -7.52397,1.90222 -10.09409,-0.071 z m 11.3389,-3.38735 c 5.03872,-2.69664 4.06414,-15.20492 -1.31779,-16.91308 -5.51091,-1.74909 -9.82529,4.9607 -7.96235,12.38322 1.24209,4.94889 5.03645,6.80101 9.28014,4.52986 z"
         id="path4810"
         inkscape:connector-curvature="0"
         sodipodi:nodetypes="sssssssssssscssssscssssssssssssssccssssscscssssssssssssssssscssscsssscssssscssssssssssssssssssssscsscsssssssssssccscsssssssssssssccccccscsssscccscsssscssssscccsssssssccsssssssssssssscssssssssssscssscssssscssssccssssss" />
    </g>
    <g
       id="g4205"
       transform="matrix(0.32265504,0,0,0.28264796,42.786698,27.406911)">
      <path
         style="fill:#fdb704"
         d="m 237.81422,565.75059 c -29.87053,-36.49463 -56.56518,-76.05386 -92.0067,-107.58282 -26.89665,-7.18725 -50.56551,-38.64648 -37.12513,-66.1796 18.46253,-24.50732 41.29629,-45.51355 64.00994,-66.01904 48.21752,-40.68055 109.51474,-65.98954 172.80014,-68.10778 49.74146,-3.71606 99.95146,1.85799 148.15712,14.38499 31.59916,11.22747 64.95989,29.36095 76.89688,62.9923 5.74366,23.45103 -13.46692,42.31596 -23.05427,61.88949 -23.2476,40.41007 -51.21949,77.78916 -79.46195,114.74826 -16.95392,25.7267 -39.2652,53.27724 -72.29433,56.23422 -51.95391,9.81018 -106.42942,10.1767 -157.9217,-2.36002 z"
         id="path4217"
         inkscape:connector-curvature="0"
         sodipodi:nodetypes="ccccccccccc" />
      <path
         style="fill:#fd792d"
         d="m 288.56061,552.19386 c -7.52678,-54.77747 -49.81642,-2.77005 -52.78676,-28.18716 35.10386,-7.12654 -3.18678,-34.42298 -15.50894,-47.52766 -21.66366,-19.2786 -42.39001,-52.95043 -23.17095,-80.8357 25.70968,-32.71119 61.42168,-57.00982 98.58249,-75.15865 52.61678,-25.76637 121.91632,-12.79653 160.79558,31.04004 18.72872,31.51146 -4.95624,68.43748 -29.80326,88.65149 -13.66297,9.63418 -48.70804,39.33745 -56.9858,14.58506 9.98033,-18.05301 41.02102,-23.97158 37.12827,-49.87954 -2.79093,-21.78043 -28.23911,-27.99547 -45.95778,-33.43731 -42.2667,-10.88363 -87.97035,13.93459 -107.55009,51.65073 -5.75279,28.3523 15.94357,49.38596 27.73046,74.32123 16.27099,27.47449 43.4435,-10.87618 62.39171,9.04875 -5.83624,12.96844 -57.4256,4.1727 -38.64552,29.64954 19.09511,8.3699 40.7765,1.51921 60.89142,1.67272 12.82249,-2.5288 56.71036,-8.50499 27.53375,8.28563 -34.69513,3.36336 -69.65089,9.34426 -104.64458,6.12083 z"
         id="path4215"
         inkscape:connector-curvature="0"
         sodipodi:nodetypes="ccccccccccccccccc" />
      <path
         style="fill:#496281"
         d="m 336.24884,765.61009 c -6.23548,-2.0041 -11.24544,-5.71668 -15.31061,-11.34575 -3.38268,-4.68402 -5.71883,-6.29958 -13.96497,-9.65748 -12.63311,-5.14432 -18.23661,-9.83451 -25.74371,-21.54775 l -6.0372,-9.41977 h -9.27576 c -10.31401,0 -14.00911,-1.79677 -19.11213,-9.2934 -9.61547,-14.12572 -16.57263,-58.17664 -16.59601,-105.0816 -0.01,-20.52402 1.20688,-24.71735 8.60944,-29.66259 8.00331,-5.34655 17.61029,-3.54643 24.73111,4.63404 2.343,2.69167 3.07654,2.92353 5.0083,1.5831 2.45468,-1.7033 2.49334,-1.71948 9.56091,-3.99879 3.802,-1.22615 6.48485,-1.22891 12.9273,-0.0132 4.85153,0.91541 11.23358,1.19284 15.82733,0.688 8.53662,-0.93814 12.07067,-1.17475 46.77759,-3.13189 23.16778,-1.30645 29.11741,-2.22709 61.99082,-9.59239 7.59799,-1.70232 10.28566,-1.87137 11.875,-0.7469 1.12986,0.79939 4.00245,2.32703 6.38354,3.39475 5.74324,2.57538 8.57367,5.26463 11.42876,10.85868 4.42978,8.67936 2.13716,16.23375 -6.6006,21.74966 l -5.14635,3.24875 1.11568,13.30694 c 1.64661,19.63961 1.07741,37.41895 -1.81783,56.7803 -3.20781,21.45174 -6.51964,28.3943 -18.69479,39.18982 -11.87033,10.52527 -19.00023,16.08887 -23.63068,18.43952 -3.02383,1.53503 -4.3682,3.34482 -5.4392,7.32222 -3.83999,14.26065 -12.82144,25.30021 -23.98014,29.47521 -7.95996,2.9782 -20.11061,4.35539 -24.8858,2.82063 z"
         id="path4211"
         inkscape:connector-curvature="0" />
      <path
         style="fill:#3d3334"
         d="m 314.83684,639.90007 c 1.76199,-8.89997 -7.51306,-14.99512 -15.2629,-16.05221 -16.95548,-3.82917 -34.50325,-4.86594 -51.81374,-3.42309 -8.89627,-4.90929 1.41296,-15.89334 8.75055,-14.8859 13.98616,-1.69224 28.24115,-1.49762 41.97839,1.86577 10.13202,2.06869 19.9283,5.62176 29.95535,7.96168 12.00456,0.28493 19.60775,-11.75084 31.31373,-12.7854 18.52276,-5.44708 38.9051,-6.10744 57.18143,0.66208 9.26492,-1.88081 17.71596,13.85606 7.95013,18.30062 -9.20254,2.52013 -18.15339,-2.99988 -27.38906,-3.01725 -14.81303,-0.56182 -30.4491,0.18963 -43.69867,7.55232 -5.72133,9.17282 0.58101,19.43922 1.98158,28.87489 2.27818,14.73903 -13.2399,30.39472 -28.04955,25.47326 -14.80127,-6.97254 -19.56042,-24.49796 -12.89724,-40.52677 z m 22.6087,24.11427 c 9.31714,-5.03674 -2.96161,-22.17462 -9.61309,-13.0206 -3.67486,5.85662 2.17791,17.16439 9.61309,13.0206 z"
         id="path4207"
         inkscape:connector-curvature="0"
         sodipodi:nodetypes="ccccccccccccccccc" />
    </g>
  </g>
</svg>
