<?xml version="1.0" encoding="UTF-8" standalone="no"?>
<!-- Created with Inkscape (http://www.inkscape.org/) -->

<svg
   xmlns:dc="http://purl.org/dc/elements/1.1/"
   xmlns:cc="http://creativecommons.org/ns#"
   xmlns:rdf="http://www.w3.org/1999/02/22-rdf-syntax-ns#"
   xmlns:svg="http://www.w3.org/2000/svg"
   xmlns="http://www.w3.org/2000/svg"
   xmlns:sodipodi="http://sodipodi.sourceforge.net/DTD/sodipodi-0.dtd"
   xmlns:inkscape="http://www.inkscape.org/namespaces/inkscape"
   preserveAspectRatio="none"
   width="263.56259mm"
   height="232.73817mm"
   viewBox="0 0 263.56259 232.73817"
   version="1.1"
   id="svg8"
   inkscape:version="0.92.1 r"
   sodipodi:docname="formbackalert.svg">
  <defs
     id="defs2" />
  <sodipodi:namedview
     id="base"
     pagecolor="#ffffff"
     bordercolor="#666666"
     borderopacity="1.0"
     inkscape:pageopacity="0.0"
     inkscape:pageshadow="2"
     inkscape:zoom="0.70429563"
     inkscape:cx="679.79695"
     inkscape:cy="356.81804"
     inkscape:document-units="mm"
     inkscape:current-layer="layer1"
     showgrid="false"
     fit-margin-top="0"
     fit-margin-left="0"
     fit-margin-right="0"
     fit-margin-bottom="0"
     inkscape:window-width="1366"
     inkscape:window-height="740"
     inkscape:window-x="0"
     inkscape:window-y="0"
     inkscape:window-maximized="1" />
  <metadata
     id="metadata5">
    <rdf:RDF>
      <cc:Work
         rdf:about="">
        <dc:format>image/svg+xml</dc:format>
        <dc:type
           rdf:resource="http://purl.org/dc/dcmitype/StillImage" />
        <dc:title></dc:title>
      </cc:Work>
    </rdf:RDF>
  </metadata>
  <g
     inkscape:label="Layer 1"
     inkscape:groupmode="layer"
     id="layer1"
     transform="translate(-0.27122634,-83.723603)">
    <path
       style="fill:#ffffff;stroke:#e89da8;stroke-width:40.84127808;stroke-linecap:round;stroke-linejoin:miter;stroke-miterlimit:4;stroke-dasharray:none;stroke-opacity:1"
       d="m 22.099573,114.91515 c 61.490943,-16.744113 126.384977,6.37146 187.887137,-10.61011 30.32474,-3.56416 35.55918,36.16894 5.74423,40.68556 -35.57585,6.08277 -70.93284,-6.85231 -106.28593,-9.72948 -19.421976,-0.4245 -68.856873,-2.07537 -81.117509,14.38255 -4.550853,24.84906 68.202319,11.34307 86.436759,6.48015 33.45856,-4.18527 66.97576,-15.32407 100.96668,-11.13322 36.40915,2.09486 27.76984,52.1364 -21.75946,48.32336 -46.16488,2.20158 -125.531629,-27.91288 -171.483658,-13.264 -13.6127533,29.10738 73.51947,20.39753 91.410358,17.02019 28.80512,-5.24278 91.36789,-22.8862 116.85317,-3.11973 20.27531,22.63935 -52.36403,34.56599 -70.81576,33.25067 -33.44392,-0.61618 -74.230854,-2.63802 -106.859176,-6.30638 -64.203194,2.28289 -3.830301,26.67697 21.496709,20.52179 45.862397,2.81748 109.043457,-15.41897 153.855897,-20.03354 27.92023,9.71586 -20.6886,35.11382 -41.83036,29.72982 -45.52666,7.51272 -104.406676,-0.32001 -147.498289,-13.13546 -18.391108,2.23971 -9.019275,41.13966 21.177834,30.56238 46.755525,-2.19035 89.772005,-25.86778 137.079335,-22.13886 27.32006,-2.95392 52.09438,20.16789 20.08213,20.3621 -34.19333,4.07152 -83.10264,-4.174 -117.483642,-2.61672 -18.211388,-1.3243 -86.257726,4.8993 -69.336299,27.19815 18.825538,10.63227 74.538761,-0.17786 95.680891,-0.55949 39.00491,-4.66552 77.04792,-7.87779 116.82196,-6.25742"
       id="path4594"
       inkscape:connector-curvature="0"
       sodipodi:nodetypes="cccccccccccccccccccccccc" />
  </g>
</svg>
