<?xml version="1.0" encoding="UTF-8" standalone="no"?>
<!-- Created with Inkscape (http://www.inkscape.org/) -->

<svg
   xmlns:dc="http://purl.org/dc/elements/1.1/"
   xmlns:cc="http://creativecommons.org/ns#"
   xmlns:rdf="http://www.w3.org/1999/02/22-rdf-syntax-ns#"
   xmlns:svg="http://www.w3.org/2000/svg"
   xmlns="http://www.w3.org/2000/svg"
   xmlns:sodipodi="http://sodipodi.sourceforge.net/DTD/sodipodi-0.dtd"
   xmlns:inkscape="http://www.inkscape.org/namespaces/inkscape"
   preserveAspectRatio="none"
   width="131.74078mm"
   height="143.7968mm"
   viewBox="0 0 466.79805 509.51621"
   id="svg2"
   version="1.1"
   inkscape:version="0.91 r13725"
   sodipodi:docname="Logosketch.svg">
  <defs
     id="defs4" />
  <sodipodi:namedview
     id="base"
     pagecolor="#ffffff"
     bordercolor="#666666"
     borderopacity="1.0"
     inkscape:pageopacity="0.0"
     inkscape:pageshadow="2"
     inkscape:zoom="0.49497475"
     inkscape:cx="270.67351"
     inkscape:cy="241.23672"
     inkscape:document-units="px"
     inkscape:current-layer="layer1"
     showgrid="false"
     inkscape:window-width="1920"
     inkscape:window-height="1029"
     inkscape:window-x="0"
     inkscape:window-y="0"
     inkscape:window-maximized="1"
     fit-margin-top="0"
     fit-margin-left="0"
     fit-margin-right="0"
     fit-margin-bottom="0" />
  <metadata
     id="metadata7">
    <rdf:RDF>
      <cc:Work
         rdf:about="">
        <dc:format>image/svg+xml</dc:format>
        <dc:type
           rdf:resource="http://purl.org/dc/dcmitype/StillImage" />
        <dc:title></dc:title>
      </cc:Work>
    </rdf:RDF>
  </metadata>
  <g
     inkscape:label="Layer 1"
     inkscape:groupmode="layer"
     id="layer1"
     transform="translate(-104.80016,-195.29852)">
    <g
       id="g4205"
       transform="translate(-3.9713938e-6,-61.428571)">
      <path
         style="fill:#fdb704"
         d="m 237.81422,565.75059 c -29.87053,-36.49463 -56.56518,-76.05386 -92.0067,-107.58282 -26.89665,-7.18725 -50.56551,-38.64648 -37.12513,-66.1796 18.46253,-24.50732 41.29629,-45.51355 64.00994,-66.01904 48.21752,-40.68055 109.51474,-65.98954 172.80014,-68.10778 49.74146,-3.71606 99.95146,1.85799 148.15712,14.38499 31.59916,11.22747 64.95989,29.36095 76.89688,62.9923 5.74366,23.45103 -13.46692,42.31596 -23.05427,61.88949 -23.2476,40.41007 -51.21949,77.78916 -79.46195,114.74826 -16.95392,25.7267 -39.2652,53.27724 -72.29433,56.23422 -51.95391,9.81018 -106.42942,10.1767 -157.9217,-2.36002 z"
         id="path4217"
         inkscape:connector-curvature="0"
         sodipodi:nodetypes="ccccccccccc" />
      <path
         style="fill:#fd792d"
         d="m 288.56061,552.19386 c -7.52678,-54.77747 -49.81642,-2.77005 -52.78676,-28.18716 35.10386,-7.12654 -3.18678,-34.42298 -15.50894,-47.52766 -21.66366,-19.2786 -42.39001,-52.95043 -23.17095,-80.8357 25.70968,-32.71119 61.42168,-57.00982 98.58249,-75.15865 52.61678,-25.76637 121.91632,-12.79653 160.79558,31.04004 18.72872,31.51146 -4.95624,68.43748 -29.80326,88.65149 -13.66297,9.63418 -48.70804,39.33745 -56.9858,14.58506 9.98033,-18.05301 41.02102,-23.97158 37.12827,-49.87954 -2.79093,-21.78043 -28.23911,-27.99547 -45.95778,-33.43731 -42.2667,-10.88363 -87.97035,13.93459 -107.55009,51.65073 -5.75279,28.3523 15.94357,49.38596 27.73046,74.32123 16.27099,27.47449 43.4435,-10.87618 62.39171,9.04875 -5.83624,12.96844 -57.4256,4.1727 -38.64552,29.64954 19.09511,8.3699 40.7765,1.51921 60.89142,1.67272 12.82249,-2.5288 56.71036,-8.50499 27.53375,8.28563 -34.69513,3.36336 -69.65089,9.34426 -104.64458,6.12083 z"
         id="path4215"
         inkscape:connector-curvature="0"
         sodipodi:nodetypes="ccccccccccccccccc" />
      <path
         style="fill:#496281"
         d="m 336.24884,765.61009 c -6.23548,-2.0041 -11.24544,-5.71668 -15.31061,-11.34575 -3.38268,-4.68402 -5.71883,-6.29958 -13.96497,-9.65748 -12.63311,-5.14432 -18.23661,-9.83451 -25.74371,-21.54775 l -6.0372,-9.41977 -9.27576,0 c -10.31401,0 -14.00911,-1.79677 -19.11213,-9.2934 -9.61547,-14.12572 -16.57263,-58.17664 -16.59601,-105.0816 -0.01,-20.52402 1.20688,-24.71735 8.60944,-29.66259 8.00331,-5.34655 17.61029,-3.54643 24.73111,4.63404 2.343,2.69167 3.07654,2.92353 5.0083,1.5831 2.45468,-1.7033 2.49334,-1.71948 9.56091,-3.99879 3.802,-1.22615 6.48485,-1.22891 12.9273,-0.0132 4.85153,0.91541 11.23358,1.19284 15.82733,0.688 8.53662,-0.93814 12.07067,-1.17475 46.77759,-3.13189 23.16778,-1.30645 29.11741,-2.22709 61.99082,-9.59239 7.59799,-1.70232 10.28566,-1.87137 11.875,-0.7469 1.12986,0.79939 4.00245,2.32703 6.38354,3.39475 5.74324,2.57538 8.57367,5.26463 11.42876,10.85868 4.42978,8.67936 2.13716,16.23375 -6.6006,21.74966 l -5.14635,3.24875 1.11568,13.30694 c 1.64661,19.63961 1.07741,37.41895 -1.81783,56.7803 -3.20781,21.45174 -6.51964,28.3943 -18.69479,39.18982 -11.87033,10.52527 -19.00023,16.08887 -23.63068,18.43952 -3.02383,1.53503 -4.3682,3.34482 -5.4392,7.32222 -3.83999,14.26065 -12.82144,25.30021 -23.98014,29.47521 -7.95996,2.9782 -20.11061,4.35539 -24.8858,2.82063 z"
         id="path4211"
         inkscape:connector-curvature="0" />
      <path
         style="fill:#3d3334"
         d="m 314.83684,639.90007 c 1.76199,-8.89997 -7.51306,-14.99512 -15.2629,-16.05221 -16.95548,-3.82917 -34.50325,-4.86594 -51.81374,-3.42309 -8.89627,-4.90929 1.41296,-15.89334 8.75055,-14.8859 13.98616,-1.69224 28.24115,-1.49762 41.97839,1.86577 10.13202,2.06869 19.9283,5.62176 29.95535,7.96168 12.00456,0.28493 19.60775,-11.75084 31.31373,-12.7854 18.52276,-5.44708 38.9051,-6.10744 57.18143,0.66208 9.26492,-1.88081 17.71596,13.85606 7.95013,18.30062 -9.20254,2.52013 -18.15339,-2.99988 -27.38906,-3.01725 -14.81303,-0.56182 -30.4491,0.18963 -43.69867,7.55232 -5.72133,9.17282 0.58101,19.43922 1.98158,28.87489 2.27818,14.73903 -13.2399,30.39472 -28.04955,25.47326 -14.80127,-6.97254 -19.56042,-24.49796 -12.89724,-40.52677 z m 22.6087,24.11427 c 9.31714,-5.03674 -2.96161,-22.17462 -9.61309,-13.0206 -3.67486,5.85662 2.17791,17.16439 9.61309,13.0206 z"
         id="path4207"
         inkscape:connector-curvature="0"
         sodipodi:nodetypes="ccccccccccccccccc" />
    </g>
  </g>
</svg>
