<?xml version="1.0" encoding="UTF-8" standalone="no"?>
<!-- Created with Inkscape (http://www.inkscape.org/) -->

<svg
   xmlns:dc="http://purl.org/dc/elements/1.1/"
   xmlns:cc="http://creativecommons.org/ns#"
   xmlns:rdf="http://www.w3.org/1999/02/22-rdf-syntax-ns#"
   xmlns:svg="http://www.w3.org/2000/svg"
   xmlns="http://www.w3.org/2000/svg"
   xmlns:sodipodi="http://sodipodi.sourceforge.net/DTD/sodipodi-0.dtd"
   xmlns:inkscape="http://www.inkscape.org/namespaces/inkscape"
   preserveAspectRatio="none"
   width="131.74078mm"
   height="143.7968mm"
   viewBox="0 0 466.79805 509.51621"
   id="svg2"
   version="1.1"
   inkscape:version="0.92.1 r"
   sodipodi:docname="payments.svg">
  <defs
     id="defs4" />
  <sodipodi:namedview
     id="base"
     pagecolor="#ffffff"
     bordercolor="#666666"
     borderopacity="1.0"
     inkscape:pageopacity="0.0"
     inkscape:pageshadow="2"
     inkscape:zoom="0.7"
     inkscape:cx="-142.08242"
     inkscape:cy="352.72445"
     inkscape:document-units="px"
     inkscape:current-layer="layer1"
     showgrid="false"
     inkscape:window-width="1366"
     inkscape:window-height="740"
     inkscape:window-x="0"
     inkscape:window-y="0"
     inkscape:window-maximized="1"
     fit-margin-top="0"
     fit-margin-left="0"
     fit-margin-right="0"
     fit-margin-bottom="0" />
  <metadata
     id="metadata7">
    <rdf:RDF>
      <cc:Work
         rdf:about="">
        <dc:format>image/svg+xml</dc:format>
        <dc:type
           rdf:resource="http://purl.org/dc/dcmitype/StillImage" />
        <dc:title />
      </cc:Work>
    </rdf:RDF>
  </metadata>
  <g
     inkscape:label="Layer 1"
     inkscape:groupmode="layer"
     id="layer1"
     transform="translate(-104.80016,-195.29852)">
    <path
       sodipodi:nodetypes="ccccsccccccccccccc"
       inkscape:connector-curvature="0"
       id="path4328"
       d="m 330.6595,684.46086 c -13.64798,-2.58595 -26.42118,-15.35023 -26.15611,-31.21016 -0.35706,-13.94747 2.67782,-29.52651 13.44765,-38.39571 7.71696,-7.68546 18.25596,-10.04436 28.40229,-10.16451 3.9886,0.0266 8.41502,-1.61133 12.03397,-0.0795 7.57612,3.20672 15.70365,8.11378 17.67224,17.61396 3.35912,10.62069 3.62386,22.87815 -2.17996,32.59164 -7.15902,15.66181 -20.92141,28.67467 -37.27567,30.47403 -2.00399,-0.0109 -3.97056,-0.51003 -5.94441,-0.82971 z m 32.26398,-123.71372 c -13.96595,-3.93892 -24.45105,-16.29275 -32.21963,-28.9349 -3.35992,-7.94841 -2.06031,-17.32672 -1.10808,-25.72347 3.28098,-8.76471 9.98112,-16.21305 17.73893,-20.42825 8.76516,-3.69271 18.39856,-7.09119 27.80566,-4.23813 12.82798,1.99628 24.65347,11.12182 29.3453,24.51776 3.76323,8.84823 7.6414,18.60712 4.91856,28.50087 -1.37411,13.18956 -12.42825,21.77735 -23.42284,24.95793 -7.45169,2.34282 -15.42371,2.97007 -23.0579,1.34819 z"
       style="fill:#3e3435;stroke-width:0.70264214;fill-opacity:1" />
    <path
       sodipodi:nodetypes="sccccscscscscscccscsccsccsssccccccc"
       inkscape:connector-curvature="0"
       id="path4326"
       d="m 284.65649,441.79073 c -36.3164,-5.32105 -72.36075,-9.32557 -108.43021,-15.06303 -19.24671,-2.95617 -39.32805,-2.76549 -58.06739,-7.52088 -16.31724,-10.35394 -10.43128,-33.48333 -5.95621,-49.35477 8.78411,-24.84734 0.44745,-53.07794 11.20293,-77.1634 9.4308,-20.50974 32.01638,-12.25794 48.72957,-7.93884 19.22236,4.96755 39.77689,7.59316 59.71494,4.61139 18.84339,-11.30807 21.25921,-40.91169 45.82132,-48.65145 39.15166,-12.33705 83.08466,-1.33716 117.19852,-28.84962 24.11295,-22.83372 43.96052,-0.49998 20.77429,32.13983 -11.37777,16.01678 -34.49246,19.54845 -37.73603,35.13143 32.72965,-5.70809 64.71752,-17.99042 94.74789,-32.82547 22.1093,-10.92204 60.06519,-20.57205 70.24995,0.5047 -24.13799,16.01159 -49.6052,29.81429 -76.69483,38.79564 -8.18958,2.71518 -35.57437,16.938 -14.0171,14.06557 17.09512,-6.16138 32.98182,-15.83835 49.54349,-23.53598 17.48994,-9.66126 34.49273,-20.70824 53.21324,-27.39674 27.81736,2.37453 11.60408,40.38064 -5.91614,49.57966 -32.1948,16.90391 -62.94449,35.61104 -93.93066,54.4001 11.68625,6.36082 40.05267,-15.59569 59.7139,-25.75259 14.07342,-7.27029 32.22158,-25.07206 45.92824,-20.63702 11.8736,22.42577 -10.3861,40.33166 -26.08699,52.80516 -19.61722,14.68591 -40.48391,28.51805 -63.57936,33.90028 -8.18864,1.9083 -29.41206,12.10665 -11.25347,12.89238 25.87791,-2.87522 46.16431,-23.22904 70.97061,-29.91549 9.90386,21.27245 -17.08321,38.28503 -31.20334,48.18901 -27.49064,19.28217 -60.62212,27.88642 -92.92055,27.96653 -42.75708,0.10607 -81.74239,-4.47546 -122.01661,-10.3764 z m 102.86137,-70.47254 c 12.15342,-6.11525 2.84431,-18.82952 -1.52807,-2.96408 -13.93944,19.89655 -39.83787,5.55917 -52.33079,-9.0699 -18.01216,-14.28684 -41.66313,-9.31991 -61.69631,-4.74993 -9.48997,13.22 14.24154,14.2364 18.69945,3.65821 22.12068,-6.89962 41.97087,12.05215 62.30027,18.93391 11.97717,6.16101 26.27011,7.09305 34.55545,-5.80821 z"
       style="fill:#cc4b04;stroke-width:0.70264214;fill-opacity:1" />
    <path
       inkscape:connector-curvature="0"
       id="path4322"
       d="m 397.64979,615.38009 c -14.40599,-5.19411 -16.34713,-31.38958 -2.45567,-38.45487 8.46771,-4.74892 20.4967,-2.05674 24.27365,8.21699 5.63909,11.65796 -2.21274,27.85583 -13.60343,30.9654 -2.74343,0.96255 -5.59783,0.41235 -8.21455,-0.72752 z M 300.91265,460.39866 c -13.06446,-5.62733 -14.64227,-25.98643 -6.67995,-37.0307 6.34199,-6.72862 16.45393,-3.38895 23.38092,0.52077 7.89361,3.92696 11.09748,14.81627 7.33439,23.20999 -3.76686,9.64002 -14.2996,17.8245 -24.03536,13.29994 z"
       style="fill:#4a6381;stroke-width:0.70264214" />
  </g>
</svg>
