<?xml version="1.0" encoding="UTF-8" standalone="no"?>
<!-- Created with Inkscape (http://www.inkscape.org/) -->

<svg
   xmlns:dc="http://purl.org/dc/elements/1.1/"
   xmlns:cc="http://creativecommons.org/ns#"
   xmlns:rdf="http://www.w3.org/1999/02/22-rdf-syntax-ns#"
   xmlns:svg="http://www.w3.org/2000/svg"
   xmlns="http://www.w3.org/2000/svg"
   xmlns:sodipodi="http://sodipodi.sourceforge.net/DTD/sodipodi-0.dtd"
   xmlns:inkscape="http://www.inkscape.org/namespaces/inkscape"
   width="131.74078mm"
   height="143.7968mm"
   viewBox="0 0 466.79805 509.51621"
   id="svg2"
   version="1.1"
   inkscape:version="0.91 r13725"
   sodipodi:docname="Payments.svg">
  <defs
     id="defs4" />
  <sodipodi:namedview
     id="base"
     pagecolor="#ffffff"
     bordercolor="#666666"
     borderopacity="1.0"
     inkscape:pageopacity="0.0"
     inkscape:pageshadow="2"
     inkscape:zoom="0.7"
     inkscape:cx="263.63187"
     inkscape:cy="352.72445"
     inkscape:document-units="px"
     inkscape:current-layer="layer1"
     showgrid="false"
     inkscape:window-width="1920"
     inkscape:window-height="1029"
     inkscape:window-x="0"
     inkscape:window-y="0"
     inkscape:window-maximized="1"
     fit-margin-top="0"
     fit-margin-left="0"
     fit-margin-right="0"
     fit-margin-bottom="0" />
  <metadata
     id="metadata7">
    <rdf:RDF>
      <cc:Work
         rdf:about="">
        <dc:format>image/svg+xml</dc:format>
        <dc:type
           rdf:resource="http://purl.org/dc/dcmitype/StillImage" />
        <dc:title></dc:title>
      </cc:Work>
    </rdf:RDF>
  </metadata>
  <g
     inkscape:label="Layer 1"
     inkscape:groupmode="layer"
     id="layer1"
     transform="translate(-104.80016,-195.29852)">
    <g
       id="g4320"
       transform="matrix(0.67295407,0,0,0.73363992,-388.05948,74.335436)">
      <path
         style="fill:#fdb604"
         d="m 1068.006,831.64153 c -20.2807,-3.52482 -39.2615,-20.92338 -38.8676,-42.54153 -0.5306,-19.01133 3.9792,-40.24659 19.983,-52.3359 11.4673,-10.4758 27.1281,-13.69113 42.2054,-13.8549 5.927,0.0363 12.5046,-2.19635 17.8823,-0.10842 11.258,4.37097 23.3354,11.05962 26.2607,24.00899 4.9916,14.47671 5.385,31.18445 -3.2394,44.42458 -10.6382,21.34809 -31.0889,39.08548 -55.3911,41.53813 -2.9779,-0.0149 -5.9002,-0.69521 -8.8333,-1.13095 z m 47.9438,-168.63003 c -20.7532,-5.36901 -36.3339,-22.2081 -47.8779,-39.44019 -4.9928,-10.83422 -3.0616,-23.61748 -1.6466,-35.0628 4.8755,-11.94688 14.8318,-22.09947 26.3598,-27.84506 13.0249,-5.03341 27.34,-9.66577 41.3188,-5.77686 19.0622,2.72106 36.6347,15.15978 43.6067,33.41934 5.5921,12.06073 11.355,25.36274 7.3089,38.84858 -2.0419,17.97824 -18.4682,29.68398 -34.806,34.01932 -11.0731,3.19342 -22.9194,4.0484 -34.2637,1.83767 z"
         id="path4328"
         inkscape:connector-curvature="0"
         sodipodi:nodetypes="ccccsccccccccccccc" />
      <path
         style="fill:#fd792e"
         d="m 999.64619,500.866 c -53.96565,-7.25294 -107.52703,-12.71137 -161.12573,-20.53191 -28.60033,-4.02946 -58.44091,-3.76954 -86.28729,-10.25146 -24.24719,-14.11311 -15.50074,-45.64001 -8.85085,-67.27383 13.05306,-33.86858 0.66491,-72.34876 16.6474,-105.17885 14.01402,-27.95614 47.57587,-16.70839 72.41143,-10.82116 28.56415,6.77109 59.10788,10.34998 88.73554,6.28562 28.001,-15.41365 31.59088,-55.76535 68.08982,-66.31515 58.17879,-16.81623 123.46259,-1.82264 174.15529,-39.32395 35.8315,-31.12389 65.3247,-0.68151 30.8703,43.80872 -16.9072,21.83193 -51.2553,26.64584 -56.0752,47.88648 48.6358,-7.78051 96.1693,-24.52215 140.794,-44.74331 32.8541,-14.88746 89.256,-28.04107 104.3904,0.68794 -35.8687,21.82487 -73.7126,40.63886 -113.9674,52.88104 -12.1696,3.70098 -52.863,23.08763 -20.8292,19.17231 25.4031,-8.39837 49.0105,-21.58873 73.6209,-32.0811 25.9898,-13.16895 51.2557,-28.22671 79.0741,-37.34358 41.3362,3.23664 17.2435,55.0415 -8.7913,67.58037 -47.841,23.04116 -93.5346,48.54021 -139.5796,74.15096 17.3656,8.67022 59.5177,-21.25797 88.734,-35.1025 20.9129,-9.90989 47.8808,-34.17489 68.2487,-28.12963 17.644,30.56781 -15.4336,54.97474 -38.7649,71.97695 -29.1509,20.01787 -60.1585,38.87199 -94.478,46.20833 -12.1682,2.60114 -43.7059,16.50217 -16.7225,17.57317 38.4542,-3.91912 68.5995,-31.66272 105.4613,-40.7768 14.717,28.99577 -25.3854,52.18504 -46.3677,65.68482 -40.8507,26.28288 -90.0836,38.01105 -138.0786,38.12025 -63.5364,0.14457 -121.468,-6.10036 -181.31491,-14.14373 z m 152.85051,-96.05876 c 18.0598,-8.33549 4.2266,-25.66589 -2.2707,-4.04024 -20.7138,27.12033 -59.1985,7.57752 -77.7628,-12.36287 -26.7658,-19.47391 -61.9108,-12.70366 -91.67981,-6.47447 -14.10196,18.01974 21.16271,19.40516 27.78711,4.98638 32.871,-9.40464 62.3681,16.42789 92.5773,25.80818 17.7979,8.39787 39.037,9.6683 51.3489,-7.91698 z"
         id="path4326"
         inkscape:connector-curvature="0"
         sodipodi:nodetypes="sccccscscscscscccscsccsccsssccccccc" />
      <path
         style="fill:#4a6381"
         d="m 1167.5526,737.47985 c -21.4071,-7.07992 -24.2916,-42.78609 -3.6491,-52.41655 12.5829,-6.47309 30.4578,-2.80348 36.0703,11.2003 8.3796,15.89058 -3.2881,37.96935 -20.2145,42.2079 -4.0767,1.31202 -8.3183,0.56206 -12.2067,-0.99165 z m -143.75,-211.25 c -19.4136,-7.67043 -21.7582,-35.42124 -9.9263,-50.47531 9.4241,-9.17155 24.4503,-4.61936 34.7437,0.70984 11.7298,5.35272 16.4907,20.19557 10.8988,31.63676 -5.5975,13.13999 -21.249,24.29598 -35.7162,18.12871 z"
         id="path4322"
         inkscape:connector-curvature="0" />
    </g>
  </g>
</svg>
