<?xml version="1.0" encoding="UTF-8" standalone="no"?>
<!-- Created with Inkscape (http://www.inkscape.org/) -->

<svg
   xmlns:dc="http://purl.org/dc/elements/1.1/"
   xmlns:cc="http://creativecommons.org/ns#"
   xmlns:rdf="http://www.w3.org/1999/02/22-rdf-syntax-ns#"
   xmlns:svg="http://www.w3.org/2000/svg"
   xmlns="http://www.w3.org/2000/svg"
   xmlns:sodipodi="http://sodipodi.sourceforge.net/DTD/sodipodi-0.dtd"
   xmlns:inkscape="http://www.inkscape.org/namespaces/inkscape"
   width="210mm"
   height="210mm"
   viewBox="0 0 744.09449 744.09448"
   id="svg2"
   version="1.1"
   inkscape:version="0.92.1 r"
   sodipodi:docname="pocket.svg">
  <defs
     id="defs4" />
  <sodipodi:namedview
     id="base"
     pagecolor="#ffffff"
     bordercolor="#666666"
     borderopacity="1.0"
     inkscape:pageopacity="0.0"
     inkscape:pageshadow="2"
     inkscape:zoom="0.69043651"
     inkscape:cx="396.85039"
     inkscape:cy="396.85039"
     inkscape:document-units="px"
     inkscape:current-layer="layer1"
     showgrid="false"
     inkscape:window-width="1366"
     inkscape:window-height="740"
     inkscape:window-x="0"
     inkscape:window-y="0"
     inkscape:window-maximized="1" />
  <metadata
     id="metadata7">
    <rdf:RDF>
      <cc:Work
         rdf:about="">
        <dc:format>image/svg+xml</dc:format>
        <dc:type
           rdf:resource="http://purl.org/dc/dcmitype/StillImage" />
        <dc:title></dc:title>
      </cc:Work>
    </rdf:RDF>
  </metadata>
  <g
     inkscape:label="Layer 1"
     inkscape:groupmode="layer"
     id="layer1"
     transform="translate(0,-308.26772)">
    <g
       id="g4518"
       transform="matrix(3.3715945,0,0,3.3207241,-1528.5076,-2216.1577)">
      <path
         sodipodi:nodetypes="ccscccccsscsccssccccccccsscc"
         style="fill:{{linecol}}"
         d="m 568.8585,978.72115 c -4.125,-2.00477 -11.4375,-5.53338 -16.25,-7.84136 -4.8125,-2.30797 -11.5625,-5.6927 -15,-7.52162 -3.4375,-1.82892 -9.69914,-4.64305 -13.91476,-6.25363 -11.45128,-4.37494 -48.07819,-27.5361 -55.06045,-34.81765 -4.77264,-4.97724 -8.26585,-13.55541 -10.34161,-25.39561 -0.84372,-4.8125 -2.01959,-11.00477 -2.61308,-13.7606 -2.02552,-9.4055 0.7355,-49.98782 4.54115,-66.74728 1.62583,-7.15982 1.59508,-9.54265 -0.29029,-22.5 -2.46526,-16.94272 -1.77886,-22.72652 3.29982,-27.8052 4.34788,-4.34788 11.96977,-4.85069 17.98168,-1.18623 9.52577,5.80626 57.50654,10.66567 87.02254,8.81349 10.65625,-0.6687 20.78125,-1.54188 22.5,-1.94038 1.71875,-0.39851 9.74059,-0.70091 17.8263,-0.672 9.77908,0.035 16.42338,-0.55501 19.84465,-1.76211 2.82885,-0.99808 6.76219,-1.81469 8.74074,-1.81469 1.97855,0 5.69637,-1.125 8.26184,-2.5 5.53401,-2.96606 8.02551,-3.10767 12.64518,-0.71875 5.8713,3.03618 6.73465,6.85178 6.54072,28.90706 -0.16909,19.22798 -0.0449,20.31065 2.98207,26.00365 3.84053,7.22304 3.8736,7.82946 0.47545,8.71809 -2.58472,0.67592 -2.65729,1.1737 -1.98031,13.58329 0.4457,8.17021 1.72811,16.08196 3.50625,21.63166 3.27849,10.23231 4.00341,29.29995 1.43559,37.75994 -2.44355,8.05053 -8.6353,15.13322 -19.9162,22.78196 -13.58628,9.21186 -43.42039,33.94899 -62.28694,51.6456 -4.21446,3.95312 -8.73989,7.15374 -10.0565,7.11246 -1.31661,-0.0412 -5.76884,-1.71531 -9.89384,-3.72009 z"
         id="path4176"
         inkscape:connector-curvature="0" />
      <path
         style="fill:{{maincol}}"
         d="m 577.6085,908.28178 c -10.88655,-2.65089 -18.37672,-7.22643 -28.84207,-17.6188 -11.23597,-11.1576 -15.34618,-18.33714 -16.41247,-28.66847 -1.28785,-12.47806 6.85585,-24.3642 22.89467,-33.41594 6.4624,-3.64717 6.86672,-4.12442 4.7842,-5.6472 -3.88798,-2.84295 -15.75442,-6.84973 -25.54933,-8.62689 -22.76492,-4.13041 -48.47077,-0.3759 -60.54892,8.84356 -5.70687,4.35615 -5.712,4.35732 -8.20577,1.86355 -3.07235,-3.07235 -3.07391,-3.40604 -0.0394,-8.38279 7.57162,-12.41795 33.53071,-19.44308 61.50979,-16.64596 19.59176,1.95863 31.32302,5.83594 44.32932,14.65134 l 6.41999,4.35134 16.70501,-3.81544 c 41.08478,-9.38381 62.10965,-8.2083 71.06821,3.97346 2.06899,2.81339 3.7618,5.62848 3.7618,6.25575 0,1.47918 -6.76516,0.41154 -13.125,-2.07131 -7.44525,-2.90658 -22.96598,-2.52206 -42.29468,1.04781 -9.25987,1.71024 -18.31092,3.67024 -20.11344,4.35556 l -3.27733,1.24603 5.569,6.83724 c 7.32973,8.99891 11.23642,15.87745 14.39745,25.34972 3.34372,10.01965 3.46152,23.95158 0.26193,30.97694 -4.20005,9.22206 -15.7513,17.11105 -24.54293,16.76172 -1.375,-0.0546 -5.3125,-0.78418 -8.75,-1.62122 z m 18.6064,-12.12588 c 10.03818,-7.89602 9.68086,-22.5195 -0.98285,-40.22377 -5.96541,-9.90401 -15.4938,-20.80429 -18.94254,-21.66986 -3.75326,-0.94202 -18.03943,5.86625 -24.43628,11.64541 -7.72059,6.97509 -8.70773,15.59242 -3.03925,26.5314 3.87646,7.48075 14.88411,17.29842 24.63395,21.97091 10.74647,5.15011 17.7559,5.68764 22.76697,1.74591 z"
         id="path4174"
         inkscape:connector-curvature="0" />
    </g>
  </g>
</svg>
