<?xml version="1.0" encoding="UTF-8" standalone="no"?>
<!-- Created with Inkscape (http://www.inkscape.org/) -->

<svg
   xmlns:dc="http://purl.org/dc/elements/1.1/"
   xmlns:cc="http://creativecommons.org/ns#"
   xmlns:rdf="http://www.w3.org/1999/02/22-rdf-syntax-ns#"
   xmlns:svg="http://www.w3.org/2000/svg"
   xmlns="http://www.w3.org/2000/svg"
   xmlns:sodipodi="http://sodipodi.sourceforge.net/DTD/sodipodi-0.dtd"
   xmlns:inkscape="http://www.inkscape.org/namespaces/inkscape"
   preserveAspectRatio="none"
   width="131.74078mm"
   height="143.7968mm"
   viewBox="0 0 466.79805 509.51621"
   id="svg2"
   version="1.1"
   inkscape:version="0.92.1 r"
   sodipodi:docname="requests.svg">
  <defs
     id="defs4" />
  <sodipodi:namedview
     id="base"
     pagecolor="#ffffff"
     bordercolor="#666666"
     borderopacity="1.0"
     inkscape:pageopacity="0.0"
     inkscape:pageshadow="2"
     inkscape:zoom="0.38533794"
     inkscape:cx="-230.86272"
     inkscape:cy="451.49168"
     inkscape:document-units="px"
     inkscape:current-layer="layer1"
     showgrid="false"
     inkscape:window-width="1366"
     inkscape:window-height="740"
     inkscape:window-x="0"
     inkscape:window-y="0"
     inkscape:window-maximized="1"
     fit-margin-top="0"
     fit-margin-left="0"
     fit-margin-right="0"
     fit-margin-bottom="0" />
  <metadata
     id="metadata7">
    <rdf:RDF>
      <cc:Work
         rdf:about="">
        <dc:format>image/svg+xml</dc:format>
        <dc:type
           rdf:resource="http://purl.org/dc/dcmitype/StillImage" />
        <dc:title />
      </cc:Work>
    </rdf:RDF>
  </metadata>
  <g
     inkscape:label="Layer 1"
     inkscape:groupmode="layer"
     id="layer1"
     transform="translate(-104.80016,-195.29852)">
    <path
       sodipodi:nodetypes="sccccccccccccccccccs"
       inkscape:connector-curvature="0"
       id="path4404"
       d="m 177.21539,697.56136 c -12.84436,-12.64574 -21.05459,-34.68752 -17.37694,-52.80623 -7.99792,-8.88191 -14.86017,-20.24399 -16.59621,-32.87144 -16.65991,-11.77903 -35.51095,-33.5959 -17.83558,-52.86906 17.84302,-20.84219 43.89271,-44.75242 60.51842,-66.46804 -7.18103,-19.32467 -13.88224,-40.80317 -7.71631,-61.69979 9.82031,-19.67564 23.99273,-26.94154 39.56584,-42.02011 11.58302,-11.27806 23.60872,-24.75861 32.50587,-41.08862 8.25256,-11.78956 10.73485,-45.64089 35.08392,-53.42775 46.8974,-17.29323 117.27894,34.80878 165.55972,37.59884 26.40951,2.35796 62.45116,-27.77637 74.93018,-21.20199 19.87745,5.65162 23.69966,31.73729 7.19932,46.40892 16.44293,0.32439 34.75843,35.92292 0.88732,53.2994 18.4917,-0.55034 30.52681,35.75214 3.52678,50.67447 -8.69794,10.24678 3.24389,6.8122 3.68594,18.18685 3.48489,21.11604 -17.33491,36.42409 -35.8088,42.74227 -61.21415,28.70517 -109.28056,56.73735 -177.63775,62.60444 -20.12818,3.15438 -37.275,17.3207 -50.59195,32.03239 -26.48987,26.43002 -45.13273,59.48497 -73.12746,84.51727 -3.01606,1.57002 -21.46877,1.60971 -26.77231,-3.61182 z"
       style="fill:#cc4b04;stroke-width:0.83161157;fill-opacity:1" />
    <path
       sodipodi:nodetypes="cccccsscccccccccccccc"
       inkscape:connector-curvature="0"
       id="path4400"
       d="m 335.19598,580.50358 c -14.56902,-0.26364 -29.9097,-0.43675 -42.64557,-8.17594 -5.25746,-24.33262 -9.56967,-48.94711 -13.34689,-73.46506 1.70046,-16.5982 3.41362,-34.03168 -0.66852,-50.39498 -1.86411,-14.47158 -22.96139,-27.06712 -15.77823,-40.93023 9.65125,-18.3591 36.53893,-44.70628 40.67956,-65.50703 2.76143,-13.87228 -11.62885,-52.1169 -33.28588,-22.94871 -5.34386,7.19723 -21.02142,38.62515 -21.98743,19.43867 -6.22101,-28.94439 -12.09917,-60.11158 -21.40999,-88.31182 -5.86874,-19.18835 21.01983,-22.50476 33.69391,-28.95119 42.77588,-14.75454 88.50106,-17.80969 133.30419,-22.64229 32.5331,-2.88094 65.65147,-1.65871 97.52443,5.28215 18.5246,8.0106 11.74841,31.03266 15.23093,46.40335 2.77675,20.34005 5.41766,40.7041 7.10859,61.16405 -11.54083,14.24132 -5.37992,35.7227 4.9333,49.5392 -15.06854,16.82624 -10.28109,43.87478 2.1284,51.97088 -11.00534,16.10563 -16.02581,38.94144 -1.29841,51.66334 -16.17098,7.64623 -18.96715,56.35784 1.39271,48.69166 0.0237,11.27983 -1.88512,20.27981 -3.17064,30.2561 -31.80232,26.12568 -75.21238,32.37112 -115.43705,36.46716 -22.29933,1.06444 -44.65326,1.03739 -66.96741,0.45069 z"
       style="fill:#496281;stroke-width:0.83161157" />
    <path
       sodipodi:nodetypes="cccccsssssccccsssccccccssscssscccsssssssss"
       inkscape:connector-curvature="0"
       id="path4394"
       d="m 341.34377,493.038 c -12.35677,4.33805 -26.72166,-9.65654 -11.40841,-17.10269 7.043,-12.92706 5.08304,-28.43651 5.64276,-42.5875 0.76588,-11.00884 -26.95427,0.39193 -17.7876,-14.31176 3.94986,-4.96809 17.53962,-0.22373 15.20058,-8.75556 -0.15297,-23.48635 -6.41632,-46.97076 -0.0224,-70.44968 4.02384,-14.77578 19.79746,-24.81593 34.39559,-18.35642 11.44268,5.06326 30.3353,21.21609 19.23965,31.6391 -9.66987,9.08368 -13.62851,-25.07296 -28.80259,-16.78519 -12.9278,7.06091 -10.68112,24.00121 -10.73793,36.47316 -0.0613,13.45711 0.6396,27.47797 5.41282,40.22807 9.09838,2.42367 36.98035,-7.39901 30.99565,8.70105 -8.42921,8.21054 -29.93366,-0.56081 -30.63939,13.31369 0.50195,13.19375 -1.48918,26.43982 -2.37501,39.39974 11.85619,5.05549 28.94933,3.05924 41.01251,-1.65987 15.60285,-6.10382 36.15833,-3.88698 22.25888,11.51299 -12.82677,14.21148 -35.58688,8.60651 -53.34211,9.1129 -6.34638,0.181 -12.69578,-0.22915 -19.04303,-0.37203 z m 112.37805,-38.12186 c -15.0716,-10.53529 12.90546,-23.76234 14.06684,-6.67054 -0.48487,6.40992 -8.653,8.7999 -14.06684,6.67054 z m -14.69443,-30.58815 c -12.81685,-11.63383 4.33413,-22.17853 13.75132,-27.22544 11.98991,-6.4257 20.91731,-26.59334 5.20338,-33.15193 -11.33393,-4.73051 -17.4158,-4.80723 -28.16837,2.55771 -11.29992,7.73982 -6.31599,17.0288 -0.18027,22.61922 -10.76613,11.67147 -27.88031,-8.86998 -23.10956,-19.98259 6.29556,-14.66439 26.94864,-25.17181 42.64146,-25.14818 14.7241,0.0222 33.58144,11.3415 35.29713,25.86921 2.15571,18.25318 -16.15563,34.08283 -30.4778,44.07337 6.25783,7.98509 -5.01835,19.64908 -13.64785,11.61878 z M 252.33484,250.20859 c -10.20333,-0.43373 -18.1987,-8.05779 -6.35812,-14.89793 22.57399,-13.04068 49.42206,-14.93476 74.44579,-20.50686 35.1264,-7.8217 71.29969,-9.39524 107.26367,-11.21982 18.6222,-0.94477 39.0331,-2.04549 55.11709,7.24009 17.12291,9.88535 -11.57407,13.10437 -19.98658,16.41106 -42.79385,16.8209 -89.69074,18.99159 -135.38214,21.59929 -22.64125,1.29217 -45.45082,5.85093 -68.09575,3.04692 -2.38547,-0.29539 -4.60714,-1.57087 -7.00396,-1.67275 z"
       style="fill:#3d3334;stroke-width:0.83161157" />
  </g>
</svg>
