<?xml version="1.0" encoding="UTF-8" standalone="no"?>
<!-- Created with Inkscape (http://www.inkscape.org/) -->

<svg
   xmlns:dc="http://purl.org/dc/elements/1.1/"
   xmlns:cc="http://creativecommons.org/ns#"
   xmlns:rdf="http://www.w3.org/1999/02/22-rdf-syntax-ns#"
   xmlns:svg="http://www.w3.org/2000/svg"
   xmlns="http://www.w3.org/2000/svg"
   xmlns:sodipodi="http://sodipodi.sourceforge.net/DTD/sodipodi-0.dtd"
   xmlns:inkscape="http://www.inkscape.org/namespaces/inkscape"
   width="131.74078mm"
   height="143.7968mm"
   viewBox="0 0 466.79805 509.51621"
   id="svg2"
   version="1.1"
   inkscape:version="0.91 r13725"
   sodipodi:docname="Requests.svg">
  <defs
     id="defs4" />
  <sodipodi:namedview
     id="base"
     pagecolor="#ffffff"
     bordercolor="#666666"
     borderopacity="1.0"
     inkscape:pageopacity="0.0"
     inkscape:pageshadow="2"
     inkscape:zoom="0.38533794"
     inkscape:cx="137.64499"
     inkscape:cy="451.49168"
     inkscape:document-units="px"
     inkscape:current-layer="layer1"
     showgrid="false"
     inkscape:window-width="1920"
     inkscape:window-height="1029"
     inkscape:window-x="0"
     inkscape:window-y="0"
     inkscape:window-maximized="1"
     fit-margin-top="0"
     fit-margin-left="0"
     fit-margin-right="0"
     fit-margin-bottom="0" />
  <metadata
     id="metadata7">
    <rdf:RDF>
      <cc:Work
         rdf:about="">
        <dc:format>image/svg+xml</dc:format>
        <dc:type
           rdf:resource="http://purl.org/dc/dcmitype/StillImage" />
        <dc:title></dc:title>
      </cc:Work>
    </rdf:RDF>
  </metadata>
  <g
     inkscape:label="Layer 1"
     inkscape:groupmode="layer"
     id="layer1"
     transform="translate(-104.80016,-195.29852)">
    <g
       id="g4392"
       transform="matrix(0.84796701,0,0,0.81557155,-473.04219,79.477967)">
      <path
         style="fill:#fb782f"
         d="m 766.84302,757.85306 c -15.14724,-15.50537 -24.82949,-42.53155 -20.49248,-64.74752 -9.43187,-10.89041 -17.52446,-24.82184 -19.57176,-40.30479 -19.64688,-14.44267 -41.87775,-41.19307 -21.03334,-64.82455 21.04211,-25.55532 51.76228,-54.87246 71.36884,-81.49872 -8.46853,-23.69463 -16.37121,-50.03015 -9.09978,-75.65221 11.581,-24.12497 28.29442,-33.03394 46.65965,-51.52229 13.65975,-13.82841 27.84155,-30.35737 38.33388,-50.38015 9.73217,-14.45558 12.65951,-55.96185 41.37416,-65.50958 55.30569,-21.20382 138.30601,42.68023 195.24311,46.10122 31.1445,2.89117 73.6481,-34.05756 88.3645,-25.99648 23.4413,6.92964 27.9488,38.91417 8.4901,56.90355 19.391,0.39775 40.9903,44.04631 1.0464,65.35221 21.8071,-0.6748 36,43.83691 4.1591,62.13369 -10.2574,12.56392 3.8255,8.35267 4.3468,22.29951 4.1097,25.8911 -20.4429,44.66082 -42.229,52.40775 -72.1893,35.19638 -128.8736,69.56759 -209.48663,76.76143 -23.73698,3.8677 -43.95808,21.2375 -59.66264,39.27601 -31.23927,32.40674 -53.22463,72.93654 -86.23857,103.62949 -3.55681,1.92506 -25.31793,1.97372 -31.57234,-4.42857 z"
         id="path4404"
         inkscape:connector-curvature="0"
         sodipodi:nodetypes="sccccccccccccccccccs" />
      <path
         style="fill:#496281"
         d="m 953.14813,614.32453 c -17.18112,-0.32325 -35.27225,-0.53551 -50.29154,-10.02479 -6.20008,-29.83505 -11.28543,-60.01572 -15.73987,-90.07801 2.00534,-20.35162 4.02565,-41.7274 -0.78838,-61.791 -2.19833,-17.74409 -27.07817,-33.18791 -18.60713,-50.18594 11.38163,-22.51072 43.09004,-54.81589 47.97304,-80.3204 3.25653,-17.00928 -13.71379,-63.9023 -39.25374,-28.1382 -6.30196,8.82477 -24.79037,47.35961 -25.92958,23.83442 -7.33638,-35.4897 -14.26844,-73.70485 -25.24861,-108.28212 -6.92096,-23.52749 24.7885,-27.59386 39.73493,-35.49804 50.44522,-18.09105 104.36852,-21.83707 157.20445,-27.76249 38.366,-3.53241 77.4222,-2.0338 115.0097,6.47663 21.8459,9.82207 13.8548,38.0502 17.9617,56.89673 3.2746,24.93962 6.389,49.90868 8.3831,74.99532 -13.61,17.46176 -6.3445,43.80081 5.8178,60.74169 -17.7702,20.63123 -12.1244,53.79636 2.51,63.72327 -12.9785,19.74765 -18.8991,47.74742 -1.5312,63.34617 -19.0703,9.37531 -22.3678,69.10226 1.6424,59.7025 0.028,13.83059 -2.2231,24.86576 -3.7391,37.09804 -37.5042,32.03358 -88.6973,39.69132 -136.1339,44.71362 -26.2974,1.30514 -52.65919,1.27198 -78.97407,0.5526 z"
         id="path4400"
         inkscape:connector-curvature="0"
         sodipodi:nodetypes="cccccsscccccccccccccc" />
      <path
         style="fill:#3d3334"
         d="m 960.39816,507.08001 c -14.57223,5.31903 -31.51261,-11.84021 -13.45383,-20.97018 8.30574,-15.85031 5.99438,-34.86698 6.65446,-52.21799 0.90319,-13.49831 -31.78694,0.48056 -20.97677,-17.54813 4.65804,-6.09155 20.68432,-0.27433 17.92591,-10.73549 -0.18039,-28.79742 -7.56671,-57.59245 -0.0264,-86.38075 4.74528,-18.11709 23.34697,-30.42766 40.56241,-22.50743 13.49426,6.20824 35.77416,26.01377 22.68916,38.79378 -11.4036,11.13781 -16.07199,-30.74281 -33.96665,-20.58089 -15.24563,8.65761 -12.59614,29.42869 -12.66314,44.72097 -0.0723,16.50022 0.75427,33.69168 6.38329,49.32501 10.72964,2.97174 43.6106,-9.07218 36.5529,10.66865 -9.9405,10.06722 -35.3005,-0.68762 -36.13277,16.32437 0.59195,16.1773 -1.75617,32.41876 -2.80083,48.30936 13.9819,6.19871 34.1397,3.75104 48.3657,-2.03522 18.4003,-7.4841 42.6412,-4.76596 26.2497,14.11647 -15.1265,17.42518 -41.9673,10.55273 -62.90588,11.17363 -7.48423,0.22193 -14.97202,-0.28097 -22.45728,-0.45616 z m 132.52644,-46.7425 c -17.7738,-12.91768 15.2193,-29.13582 16.5889,-8.17898 -0.5718,7.85942 -10.2044,10.78986 -16.5889,8.17898 z m -17.329,-37.50518 c -15.1148,-14.26463 5.1112,-27.19385 16.2168,-33.38203 14.1396,-7.87877 24.6676,-32.607 6.1363,-40.64871 -13.366,-5.80024 -20.5383,-5.89431 -33.2187,3.13609 -13.3259,9.49006 -7.4484,20.8796 -0.2126,27.7342 -12.6964,14.31078 -32.879,-10.87579 -27.2529,-24.50133 7.4243,-17.98051 31.7803,-30.86402 50.2867,-30.83504 17.364,0.0272 39.6023,13.9062 41.6256,31.71912 2.5422,22.38084 -19.0522,41.79011 -35.9422,54.03985 7.3798,9.79079 -5.9181,24.09241 -16.0948,14.24619 z M 855.43072,209.33862 c -12.0327,-0.53181 -21.46157,-9.87993 -7.49807,-18.26686 26.6213,-15.98962 58.28299,-18.31201 87.79326,-25.14416 41.42425,-9.59045 84.08309,-11.51982 126.49509,-13.757 21.961,-1.15841 46.0314,-2.50804 64.9991,8.87732 20.1929,12.12076 -13.6492,16.06772 -23.57,20.12216 -50.4664,20.62468 -105.77149,23.28624 -159.65496,26.48362 -26.70062,1.58438 -53.59975,7.17403 -80.30471,3.73593 -2.81316,-0.36218 -5.43316,-1.92609 -8.25971,-2.05101 z"
         id="path4394"
         inkscape:connector-curvature="0"
         sodipodi:nodetypes="cccccsssssccccsssccccccssscssscccsssssssss" />
    </g>
  </g>
</svg>
