<?xml version="1.0" encoding="UTF-8" standalone="no"?>
<!-- Created with Inkscape (http://www.inkscape.org/) -->

<svg
   xmlns:dc="http://purl.org/dc/elements/1.1/"
   xmlns:cc="http://creativecommons.org/ns#"
   xmlns:rdf="http://www.w3.org/1999/02/22-rdf-syntax-ns#"
   xmlns:svg="http://www.w3.org/2000/svg"
   xmlns="http://www.w3.org/2000/svg"
   xmlns:sodipodi="http://sodipodi.sourceforge.net/DTD/sodipodi-0.dtd"
   xmlns:inkscape="http://www.inkscape.org/namespaces/inkscape"
   width="210mm"
   height="210mm"
   viewBox="0 0 744.09449 744.09448"
   id="svg2"
   version="1.1"
   inkscape:version="0.91 r13725"
   sodipodi:docname="ViewAccounts.svg">
  <defs
     id="defs4" />
  <sodipodi:namedview
     id="base"
     pagecolor="#ffffff"
     bordercolor="#666666"
     borderopacity="1.0"
     inkscape:pageopacity="0.0"
     inkscape:pageshadow="2"
     inkscape:zoom="0.7"
     inkscape:cx="329.03086"
     inkscape:cy="503.96797"
     inkscape:document-units="px"
     inkscape:current-layer="layer1"
     showgrid="false"
     inkscape:window-width="1920"
     inkscape:window-height="1029"
     inkscape:window-x="0"
     inkscape:window-y="0"
     inkscape:window-maximized="1" />
  <metadata
     id="metadata7">
    <rdf:RDF>
      <cc:Work
         rdf:about="">
        <dc:format>image/svg+xml</dc:format>
        <dc:type
           rdf:resource="http://purl.org/dc/dcmitype/StillImage" />
        <dc:title></dc:title>
      </cc:Work>
    </rdf:RDF>
  </metadata>
  <g
     inkscape:label="Layer 1"
     inkscape:groupmode="layer"
     id="layer1"
     transform="translate(0,-308.26772)">
    <g
       id="g4172"
       transform="translate(4.7041379,286.89775)">
      <path
         style="fill:#f8edb2"
         d="m 208.96577,348.29856 c -5.60372,-4.01442 -15.43335,-10.00775 -21.84361,-13.31852 -6.41026,-3.31077 -14.2382,-7.87541 -17.39542,-10.14365 -3.15723,-2.26823 -10.2026,-6.20772 -15.65639,-8.75441 -14.77536,-6.89947 -39.07264,-21.75972 -43.1254,-26.37557 -7.13646,-8.12798 -7.75954,-12.80528 -8.15128,-61.19006 -0.20181,-24.92618 -0.94887,-47.12778 -1.72451,-51.25 -0.75264,-4.00004 -1.713537,-13.51682 -2.135319,-21.14838 -0.619271,-11.20487 -0.363075,-15.05437 1.331069,-20 1.15386,-3.36844 2.44026,-9.35622 2.85866,-13.30617 0.4184,-3.94995 1.50165,-7.79665 2.40724,-8.54821 2.10996,-1.75111 29.00326,-7.12773 43.62355,-8.72139 32.09293,-3.49825 56.4988,-5.14663 81.875,-5.52989 15.46875,-0.233625 35.24753,-0.582246 43.95284,-0.774714 l 15.82784,-0.349941 5.68628,4.659485 c 6.65928,5.45677 6.6347,5.35515 7.6027,31.44639 0.3826,10.3125 1.58648,23.8125 2.67529,30 1.0888,6.1875 2.43959,23.0625 3.00175,37.5 0.56216,14.4375 1.69076,29.34375 2.508,33.125 3.71896,17.20715 -3.00936,29.67697 -25.37136,47.02154 -5.34189,4.14331 -17.27681,18.32931 -33.29554,39.5755 -5.24545,6.95721 -31.87849,33.41399 -33.61491,33.39243 -0.46634,-0.006 -5.43275,-3.29503 -11.03648,-7.30944 z"
         id="path4186"
         inkscape:connector-curvature="0"
         sodipodi:nodetypes="sssssssssssssscssssssscs" />
      <path
         style="fill:#9cc4e6"
         d="m 211.02936,691.4871 c -4.46875,-1.6185 -9.8125,-3.80802 -11.875,-4.86563 -2.0625,-1.0576 -8.8125,-3.75784 -15,-6.00052 -6.1875,-2.24267 -15.46875,-6.19506 -20.625,-8.78306 -16.14437,-8.10315 -29.05269,-13.35161 -38.15815,-15.51496 -13.83832,-3.28784 -17.80924,-6.13393 -24.02051,-17.21633 -8.666047,-15.4623 -9.189333,-24.47908 -3.503151,-60.36307 1.71069,-10.7957 1.684735,-11.31925 -0.642755,-12.96496 -3.190737,-2.2561 -3.065258,-3.98052 0.852174,-11.71119 3.269152,-6.45136 3.273562,-6.50086 1.708425,-19.18708 -1.825094,-14.79332 -1.114159,-20.22926 3.337607,-25.51987 6.1552,-7.31505 15.36517,-9.49929 24.26879,-5.7556 3.41482,1.43584 4.91438,1.45937 8.66508,0.13605 10.63019,-3.75055 19.95599,-4.5709 55.95392,-4.92201 36.91776,-0.36009 51.25117,-1.69985 64.03857,-5.9858 2.40625,-0.8065 8.875,-1.49408 14.375,-1.52795 8.72055,-0.0537 10.7479,0.37806 15.84548,3.37467 12.5055,7.35136 19.81693,20.44636 24.81573,44.44579 1.96102,9.41487 5.08018,22.39764 6.93148,28.8506 3.02642,10.54899 3.3004,13.13417 2.7158,25.625 -0.82804,17.6918 -3.595,25.49131 -11.8559,33.41934 -7.55058,7.24633 -10.73558,9.36933 -25.30954,16.87038 -14.07521,7.24433 -29.15434,20.84533 -39.20236,35.35953 -9.86563,14.25072 -18.7475,17.51299 -33.31569,12.23667 z"
         id="path4184"
         inkscape:connector-curvature="0"
         sodipodi:nodetypes="ssssssssssssssssssssssss" />
      <path
         style="fill:#fdb98c"
         d="m 543.18894,357.11197 c -2.90652,-2.61612 -10.62833,-9.20487 -17.15958,-14.64168 -6.53125,-5.43681 -17.21875,-14.70894 -23.75,-20.60471 -14.42139,-13.01823 -26.3764,-22.56751 -38.47372,-30.73161 -11.58993,-7.82168 -15.13647,-14.25845 -16.67497,-30.26411 -0.57501,-5.98198 -1.6819,-14.25133 -2.45977,-18.37633 -0.85268,-4.5217 -1.59619,-28.01631 -1.87231,-59.16441 -0.26327,-29.69833 -0.99952,-53.61407 -1.73164,-56.25 -1.99485,-7.18219 -1.61425,-22.29999 0.64835,-25.75316 3.47231,-5.299417 7.77991,-6.15488 23.37191,-4.641514 7.73694,0.750952 25.5984,1.7102 39.69215,2.131664 37.84098,1.131608 59.54555,2.50806 94.375,5.98501 17.1875,1.7158 35.57788,3.49042 40.86751,3.94361 5.28964,0.45319 10.15652,1.48207 10.81529,2.28639 3.17408,3.87537 3.97633,11.76176 2.10259,20.66921 -3.17895,15.11219 -3.80013,53.44951 -1.33386,82.32237 1.24575,14.58404 1.9772,32.82942 1.72888,43.12501 -0.40397,16.74953 -0.65545,18.30655 -4.09367,25.34582 -5.81331,11.90194 -16.27948,21.66041 -41.19616,38.41059 -12.29768,8.26707 -29.95728,20.86606 -39.24355,27.99773 -9.28628,7.13168 -17.65898,12.96668 -18.60602,12.96668 -0.94702,0 -4.09992,-2.14045 -7.00643,-4.75656 z"
         id="path4182"
         inkscape:connector-curvature="0"
         sodipodi:nodetypes="ssssssssssssssssssssss" />
      <path
         style="fill:#fcb339"
         d="m 192.27936,244.87565 c -13.37432,-5.79307 -20.90006,-23.56747 -17.69135,-41.78366 1.8177,-10.31927 8.6293,-24.58469 15.08105,-31.58402 4.78746,-5.19378 4.9599,-5.63808 2.90874,-7.49435 -3.09024,-2.79663 -19.547,-9.12462 -28.42344,-10.92944 -9.72929,-1.97823 -27.50227,-0.71192 -37.89235,2.69977 -4.34079,1.42535 -8.20715,2.27674 -8.59192,1.89198 -2.85257,-2.85258 7.7798,-10.41098 18.0421,-12.82589 17.82665,-4.19496 37.74356,-1.22487 57.52822,8.57881 l 10.36645,5.13678 4.64875,-2.78631 c 14.58618,-8.74249 27.98501,-11.95275 45.91109,-10.99998 18.87965,1.00346 29.36266,5.22964 29.36266,11.83743 l 0,3.11076 -9.0625,-1.117 c -4.98437,-0.61435 -16.65625,-1.10756 -25.9375,-1.09601 -15.90889,0.0197 -17.32227,0.22635 -24.6875,3.6082 -4.29687,1.97297 -7.8125,4.14185 -7.8125,4.81972 0,0.67788 3.26994,4.72808 7.26651,9.00044 10.89527,11.64706 13.31543,17.43946 13.33909,31.92565 0.0176,10.8189 -0.30044,12.43084 -3.57699,18.125 -4.60111,7.99609 -12.61581,16.41575 -18.54131,19.47815 -5.62611,2.90767 -16.02109,3.09651 -22.2373,0.40397 z m 23.45428,-10.95755 c 12.19516,-7.99575 16.12255,-26.74148 8.79525,-41.98036 -3.08055,-6.40675 -15.23113,-18.81921 -18.42215,-18.81921 -4.22003,0 -14.93075,13.68115 -18.03383,23.03517 -2.51687,7.587 -2.70112,24.25188 -0.32965,29.81748 4.79413,11.25131 17.46406,14.84851 27.99038,7.94692 z"
         id="path4180"
         inkscape:connector-curvature="0"
         sodipodi:nodetypes="sssssscsscssscsssssssssssssss" />
      <path
         style="fill:#fd7a2f"
         d="m 511.08847,222.1724 c -6.30698,-6.54337 -8.80911,-12.86088 -8.80911,-22.24175 0,-11.50982 6.45083,-19.83628 24.0625,-31.05888 3.95313,-2.51904 7.1875,-5.32733 7.1875,-6.24066 0,-2.97628 -9.55035,-12.5357 -16.99642,-17.01258 -7.02945,-4.22637 -7.70302,-4.375 -19.82762,-4.375 -11.4459,0 -13.27155,0.34148 -20.73517,3.8783 -4.50131,2.13306 -10.20058,5.64869 -12.66501,7.8125 -5.48412,4.81511 -6.02578,4.85506 -6.02578,0.44446 0,-2.46761 1.55601,-4.99216 5.3125,-8.61927 14.29831,-13.80588 37.45603,-17.94554 54.29688,-9.70608 6.99135,3.42055 18.63141,13.74223 23.68908,21.00599 l 2.4829,3.56591 10.13678,-3.20221 c 23.44444,-7.40609 55.44165,-7.85943 72.93931,-1.03341 4.89403,1.90921 11.14255,8.75071 11.14255,12.19996 0,3.79053 -0.4376,3.77573 -5.63781,-0.19067 -6.55165,-4.99719 -15.44969,-6.74902 -34.36466,-6.76564 -17.08828,-0.015 -37.78579,2.8868 -45.41764,6.36761 -3.18946,1.45469 -3.46814,2.0621 -2.77785,6.05473 1.74827,10.11193 2.1911,28.66356 0.78585,32.92152 -4.40643,13.3516 -14.87286,22.1413 -26.36501,22.1413 -6.33688,0 -6.97888,-0.30751 -12.41377,-5.94613 z m 22.04023,-4.19877 c 6.10971,-3.7664 10.40066,-13.5127 10.40066,-23.62365 0,-8.53838 -2.97812,-21.23145 -4.98145,-21.23145 -2.39887,0 -17.10865,9.38661 -21.46092,13.69467 -7.59379,7.51663 -8.77944,20.3603 -2.64275,28.62803 5.0497,6.80325 10.54766,7.54842 18.68446,2.5324 z"
         id="path4178"
         inkscape:connector-curvature="0"
         sodipodi:nodetypes="sssssssssssscssssssssssssssss" />
      <path
         style="fill:#4a6381"
         d="m 564.15436,691.8234 c -4.125,-2.00477 -11.4375,-5.53338 -16.25,-7.84136 -4.8125,-2.30797 -11.5625,-5.6927 -15,-7.52162 -3.4375,-1.82892 -9.69914,-4.64305 -13.91476,-6.25363 -11.45128,-4.37494 -48.07819,-27.5361 -55.06045,-34.81765 -4.77264,-4.97724 -8.26585,-13.55541 -10.34161,-25.39561 -0.84372,-4.8125 -2.01959,-11.00477 -2.61308,-13.7606 -2.02552,-9.4055 0.7355,-49.98782 4.54115,-66.74728 1.62583,-7.15982 1.59508,-9.54265 -0.29029,-22.5 -2.46526,-16.94272 -1.77886,-22.72652 3.29982,-27.8052 4.34788,-4.34788 11.96977,-4.85069 17.98168,-1.18623 9.52577,5.80626 57.50654,10.66567 87.02254,8.81349 10.65625,-0.6687 20.78125,-1.54188 22.5,-1.94038 1.71875,-0.39851 9.74059,-0.70091 17.8263,-0.672 9.77908,0.035 16.42338,-0.55501 19.84465,-1.76211 2.82885,-0.99808 6.76219,-1.81469 8.74074,-1.81469 1.97855,0 5.69637,-1.125 8.26184,-2.5 5.53401,-2.96606 8.02551,-3.10767 12.64518,-0.71875 5.8713,3.03618 6.73465,6.85178 6.54072,28.90706 -0.16909,19.22798 -0.0449,20.31065 2.98207,26.00365 3.84053,7.22304 3.8736,7.82946 0.47545,8.71809 -2.58472,0.67592 -2.65729,1.1737 -1.98031,13.58329 0.4457,8.17021 1.72811,16.08196 3.50625,21.63166 3.27849,10.23231 4.00341,29.29995 1.43559,37.75994 -2.44355,8.05053 -8.6353,15.13322 -19.9162,22.78196 -13.58628,9.21186 -43.42039,33.94899 -62.28694,51.6456 -4.21446,3.95312 -8.73989,7.15374 -10.0565,7.11246 -1.31661,-0.0412 -5.76884,-1.71531 -9.89384,-3.72009 z M 199.32205,628.0271 c -5.1928,-4.08465 -9.13933,-12.02957 -12.59621,-25.35792 -4.7183,-18.19191 -4.01024,-26.47944 3.02666,-35.42541 3.31552,-4.21502 2.22269,-5.4933 -9.91286,-11.59494 -14.7163,-7.3992 -20.84697,-8.7803 -38.97563,-8.7803 -23.02735,0 -27.2524,1.158 -34.53834,9.46627 -9.262702,10.56243 -12.252707,8.31724 -5.242,-3.9362 7.0211,-12.2716 11.9157,-14.54232 34.94569,-16.21216 20.97781,-1.52105 37.89899,2.88314 55.74201,14.50833 l 8.02184,5.22643 9.27521,-6.41196 c 30.79379,-21.28772 75.40278,-28.14119 89.7546,-13.78936 6.47807,6.47806 2.30448,13.10704 -4.75568,7.55352 -1.76767,-1.39045 -5.75609,-2.9093 -8.86318,-3.37523 -6.80166,-1.01998 -28.97595,1.31172 -38.17292,4.014 -9.17788,2.69667 -28.26967,12.04773 -33.30159,16.31096 l -4.17471,3.53696 5.08443,6.38579 c 8.23598,10.34395 10.63565,16.91116 10.67798,29.22265 0.0292,8.52112 -0.54663,11.92626 -2.90856,17.1966 -5.62633,12.55435 -15.47922,17.44606 -23.08674,11.46197 z m 11.63894,-10.73055 c 1.43718,-1.8271 3.5147,-6.42348 4.61668,-10.21422 1.66172,-5.71606 1.75535,-8.00165 0.54877,-13.39328 -1.55844,-6.96386 -6.52869,-15.64267 -11.64522,-20.33431 l -3.1504,-2.88879 -2.67788,3.40439 c -3.85418,4.89979 -4.46995,8.74628 -2.87635,17.9672 2.61273,15.11786 8.12232,28.78099 11.60578,28.78099 0.53105,0 2.14143,-1.49489 3.57862,-3.32198 z"
         id="path4176"
         inkscape:connector-curvature="0" />
      <path
         style="fill:#41434f"
         d="m 572.90436,621.38403 c -10.88655,-2.65089 -18.37672,-7.22643 -28.84207,-17.6188 -11.23597,-11.1576 -15.34618,-18.33714 -16.41247,-28.66847 -1.28785,-12.47806 6.85585,-24.3642 22.89467,-33.41594 6.4624,-3.64717 6.86672,-4.12442 4.7842,-5.6472 -3.88798,-2.84295 -15.75442,-6.84973 -25.54933,-8.62689 -22.76492,-4.13041 -48.47077,-0.3759 -60.54892,8.84356 -5.70687,4.35615 -5.712,4.35732 -8.20577,1.86355 -3.07235,-3.07235 -3.07391,-3.40604 -0.0394,-8.38279 7.57162,-12.41795 33.53071,-19.44308 61.50979,-16.64596 19.59176,1.95863 31.32302,5.83594 44.32932,14.65134 l 6.41999,4.35134 16.70501,-3.81544 c 41.08478,-9.38381 62.10965,-8.2083 71.06821,3.97346 2.06899,2.81339 3.7618,5.62848 3.7618,6.25575 0,1.47918 -6.76516,0.41154 -13.125,-2.07131 -7.44525,-2.90658 -22.96598,-2.52206 -42.29468,1.04781 -9.25987,1.71024 -18.31092,3.67024 -20.11344,4.35556 l -3.27733,1.24603 5.569,6.83724 c 7.32973,8.99891 11.23642,15.87745 14.39745,25.34972 3.34372,10.01965 3.46152,23.95158 0.26193,30.97694 -4.20005,9.22206 -15.7513,17.11105 -24.54293,16.76172 -1.375,-0.0546 -5.3125,-0.78418 -8.75,-1.62122 z m 18.6064,-12.12588 c 10.03818,-7.89602 9.68086,-22.5195 -0.98285,-40.22377 -5.96541,-9.90401 -15.4938,-20.80429 -18.94254,-21.66986 -3.75326,-0.94202 -18.03943,5.86625 -24.43628,11.64541 -7.72059,6.97509 -8.70773,15.59242 -3.03925,26.5314 3.87646,7.48075 14.88411,17.29842 24.63395,21.97091 10.74647,5.15011 17.7559,5.68764 22.76697,1.74591 z"
         id="path4174"
         inkscape:connector-curvature="0" />
    </g>
  </g>
</svg>
